<svg class="main-svg" xmlns="http://www.w3.org/2000/svg" xmlns:xlink="http://www.w3.org/1999/xlink" width="700" height="500" style="" viewBox="0 0 700 500"><rect x="0" y="0" width="700" height="500" style="fill: rgb(255, 255, 255); fill-opacity: 1;"/><defs id="defs-e0f35a"><g class="clips"><clipPath id="clipe0f35axyplot" class="plotclip"><rect width="525" height="320"/></clipPath><clipPath class="axesclip" id="clipe0f35ax"><rect x="95" y="0" width="525" height="500"/></clipPath><clipPath class="axesclip" id="clipe0f35ay"><rect x="0" y="100" width="700" height="320"/></clipPath><clipPath class="axesclip" id="clipe0f35axy"><rect x="95" y="100" width="525" height="320"/></clipPath></g><g class="gradients"/><g class="patterns"/></defs><g class="bglayer"><rect class="bg" x="95" y="100" width="525" height="320" style="fill: rgb(0, 0, 0); fill-opacity: 0; stroke-width: 0;"/></g><g class="layer-below"><g class="imagelayer"/><g class="shapelayer"/></g><g class="cartesianlayer"><g class="subplot xy"><g class="layer-subplot"><g class="shapelayer"/><g class="imagelayer"/></g><g class="minor-gridlayer"><g class="x"/><g class="y"/></g><g class="gridlayer"><g class="x"><path class="xgrid crisp" transform="translate(170,0)" d="M0,100v320" style="stroke: rgb(211, 211, 211); stroke-opacity: 1; stroke-width: 2px;"/><path class="xgrid crisp" transform="translate(245,0)" d="M0,100v320" style="stroke: rgb(211, 211, 211); stroke-opacity: 1; stroke-width: 2px;"/><path class="xgrid crisp" transform="translate(320,0)" d="M0,100v320" style="stroke: rgb(211, 211, 211); stroke-opacity: 1; stroke-width: 2px;"/><path class="xgrid crisp" transform="translate(395,0)" d="M0,100v320" style="stroke: rgb(211, 211, 211); stroke-opacity: 1; stroke-width: 2px;"/><path class="xgrid crisp" transform="translate(470,0)" d="M0,100v320" style="stroke: rgb(211, 211, 211); stroke-opacity: 1; stroke-width: 2px;"/><path class="xgrid crisp" transform="translate(545,0)" d="M0,100v320" style="stroke: rgb(211, 211, 211); stroke-opacity: 1; stroke-width: 2px;"/></g><g class="y"><path class="ygrid crisp" transform="translate(0,412.85)" d="M95,0h525" style="stroke: rgb(211, 211, 211); stroke-opacity: 1; stroke-width: 2px;"/><path class="ygrid crisp" transform="translate(0,355.52)" d="M95,0h525" style="stroke: rgb(211, 211, 211); stroke-opacity: 1; stroke-width: 2px;"/><path class="ygrid crisp" transform="translate(0,298.19)" d="M95,0h525" style="stroke: rgb(211, 211, 211); stroke-opacity: 1; stroke-width: 2px;"/><path class="ygrid crisp" transform="translate(0,240.86)" d="M95,0h525" style="stroke: rgb(211, 211, 211); stroke-opacity: 1; stroke-width: 2px;"/><path class="ygrid crisp" transform="translate(0,183.53)" d="M95,0h525" style="stroke: rgb(211, 211, 211); stroke-opacity: 1; stroke-width: 2px;"/><path class="ygrid crisp" transform="translate(0,126.2)" d="M95,0h525" style="stroke: rgb(211, 211, 211); stroke-opacity: 1; stroke-width: 2px;"/></g></g><g class="zerolinelayer"/><path class="xlines-below"/><path class="ylines-below"/><g class="overlines-below"/><g class="xaxislayer-below"/><g class="yaxislayer-below"/><g class="overaxes-below"/><g class="plot" transform="translate(95,100)" clip-path="url(#clipe0f35axyplot)"><g class="scatterlayer mlayer"><g class="trace scatter traceaf8ddd" style="stroke-miterlimit: 2; opacity: 1;"><g class="fills"/><g class="errorbars"/><g class="lines"><path class="js-line" d="M-2550,83.45L-1797.75,41.12L-1796.71,39.58L-1743.48,16L-1741.87,16L-1684.65,56.65L-1683.02,57.54L-1623.03,57.54L-1621.53,63.43L-1526.86,304L-1525.23,304L-1476.22,146.51L-1474.56,146.51L-1369.22,113.37L-1366.95,112L-1261.41,87.16L-1258.87,86.44L-1116.78,76.99L-1114.25,76.99L-444.7,77.69L-442.18,77.69L-179.1,93.2L-176.61,93.2L-101.79,89.56L-99.29,89.01L-61.63,78.06L-59.11,77.13L86.34,76.17L89.33,75.18L112.69,66.2L115.36,64.93L126.97,57.82L128.91,56.19L138.37,56.19L139.7,68.56L143.46,115.16L144.66,140.8L148.18,201.26L149.33,206.87L152.73,237.17L153.85,244.72L159.08,276.36L160.14,276.36L202.57,276.36L205.69,273.88L218.15,267.11L223.23,266.51L228.4,262.26L233.41,260.93L242.35,253.52L246.28,252.79L253.26,244.72L256.39,242.19L259.31,237.17L262.08,236.53L267.22,230.67L269.65,224.64L274.36,218.45L276.66,212.13L278.95,206.87L281.22,205.7L288,188.93L290.25,185.99L296.98,167.22L299.23,166.1L308.22,140.8L310.48,140.27L321.85,110.67L324.15,108.45L328.76,100.04L331.07,95.03L338.08,82.1L340.44,81.31L347.56,69.63L349.95,69.63L391.97,69.63L394.5,67.15L553.25,68.83L555.78,69.64L611.36,83.72L613.87,84.21L686.69,92.8L689.19,92.8L1048,79.11L1050.52,78.99L1393.45,85.88L1395.96,86.04L1806.33,93.9L1808.89,125.64" style="vector-effect: non-scaling-stroke; fill: none; stroke: rgb(0, 128, 0); stroke-opacity: 1; stroke-width: 5px; opacity: 1;"/></g><g class="points"/><g class="text"/></g><g class="trace scatter trace644cb9" style="stroke-miterlimit: 2; opacity: 1;"><g class="fills"/><g class="errorbars"/><g class="lines"><path class="js-line" d="M-2550,83.53L2262.9,83.53" style="vector-effect: non-scaling-stroke; fill: none; stroke: rgb(255, 0, 0); stroke-opacity: 1; stroke-width: 5px; opacity: 1; stroke-dasharray: 5px, 5px;"/></g><g class="points"><path class="point" transform="translate(-2550,83.53)" d="M3,0A3,3 0 1,1 0,-3A3,3 0 0,1 3,0Z" style="opacity: 1; stroke-width: 0px; fill: rgb(255, 0, 0); fill-opacity: 1;"/><path class="point" transform="translate(2262.9,83.53)" d="M3,0A3,3 0 1,1 0,-3A3,3 0 0,1 3,0Z" style="opacity: 1; stroke-width: 0px; fill: rgb(255, 0, 0); fill-opacity: 1;"/></g><g class="text"/></g></g></g><g class="overplot"/><path class="xlines-above crisp" d="M93,421H620" style="fill: none; stroke-width: 2px; stroke: rgb(211, 211, 211); stroke-opacity: 1;"/><path class="ylines-above crisp" d="M94,100V420" style="fill: none; stroke-width: 2px; stroke: rgb(211, 211, 211); stroke-opacity: 1;"/><g class="overlines-above"/><g class="xaxislayer-above"><g class="xtick"><text text-anchor="middle" x="0" y="446" transform="translate(95,0)" style="font-family: 'Open Sans', verdana, arial, sans-serif; font-size: 20px; fill: rgb(42, 63, 95); fill-opacity: 1; white-space: pre; opacity: 1;">3.4</text></g><g class="xtick"><text text-anchor="middle" x="0" y="446" style="font-family: 'Open Sans', verdana, arial, sans-serif; font-size: 20px; fill: rgb(42, 63, 95); fill-opacity: 1; white-space: pre; opacity: 1;" transform="translate(170,0)">3.5</text></g><g class="xtick"><text text-anchor="middle" x="0" y="446" style="font-family: 'Open Sans', verdana, arial, sans-serif; font-size: 20px; fill: rgb(42, 63, 95); fill-opacity: 1; white-space: pre; opacity: 1;" transform="translate(245,0)">3.6</text></g><g class="xtick"><text text-anchor="middle" x="0" y="446" style="font-family: 'Open Sans', verdana, arial, sans-serif; font-size: 20px; fill: rgb(42, 63, 95); fill-opacity: 1; white-space: pre; opacity: 1;" transform="translate(320,0)">3.7</text></g><g class="xtick"><text text-anchor="middle" x="0" y="446" style="font-family: 'Open Sans', verdana, arial, sans-serif; font-size: 20px; fill: rgb(42, 63, 95); fill-opacity: 1; white-space: pre; opacity: 1;" transform="translate(395,0)">3.8</text></g><g class="xtick"><text text-anchor="middle" x="0" y="446" style="font-family: 'Open Sans', verdana, arial, sans-serif; font-size: 20px; fill: rgb(42, 63, 95); fill-opacity: 1; white-space: pre; opacity: 1;" transform="translate(470,0)">3.9</text></g><g class="xtick"><text text-anchor="middle" x="0" y="446" style="font-family: 'Open Sans', verdana, arial, sans-serif; font-size: 20px; fill: rgb(42, 63, 95); fill-opacity: 1; white-space: pre; opacity: 1;" transform="translate(545,0)">4</text></g><g class="xtick"><text text-anchor="middle" x="0" y="446" style="font-family: 'Open Sans', verdana, arial, sans-serif; font-size: 20px; fill: rgb(42, 63, 95); fill-opacity: 1; white-space: pre; opacity: 1;" transform="translate(620,0)">4.1</text></g></g><g class="yaxislayer-above"><g class="ytick"><text text-anchor="end" x="89" y="7" transform="translate(0,412.85)" style="font-family: 'Open Sans', verdana, arial, sans-serif; font-size: 20px; fill: rgb(42, 63, 95); fill-opacity: 1; white-space: pre; opacity: 1;">9.6</text></g><g class="ytick"><text text-anchor="end" x="89" y="7" style="font-family: 'Open Sans', verdana, arial, sans-serif; font-size: 20px; fill: rgb(42, 63, 95); fill-opacity: 1; white-space: pre; opacity: 1;" transform="translate(0,355.52)">9.7</text></g><g class="ytick"><text text-anchor="end" x="89" y="7" style="font-family: 'Open Sans', verdana, arial, sans-serif; font-size: 20px; fill: rgb(42, 63, 95); fill-opacity: 1; white-space: pre; opacity: 1;" transform="translate(0,298.19)">9.8</text></g><g class="ytick"><text text-anchor="end" x="89" y="7" style="font-family: 'Open Sans', verdana, arial, sans-serif; font-size: 20px; fill: rgb(42, 63, 95); fill-opacity: 1; white-space: pre; opacity: 1;" transform="translate(0,240.86)">9.9</text></g><g class="ytick"><text text-anchor="end" x="89" y="7" style="font-family: 'Open Sans', verdana, arial, sans-serif; font-size: 20px; fill: rgb(42, 63, 95); fill-opacity: 1; white-space: pre; opacity: 1;" transform="translate(0,183.53)">10</text></g><g class="ytick"><text text-anchor="end" x="89" y="7" style="font-family: 'Open Sans', verdana, arial, sans-serif; font-size: 20px; fill: rgb(42, 63, 95); fill-opacity: 1; white-space: pre; opacity: 1;" transform="translate(0,126.2)">10.1</text></g></g><g class="overaxes-above"/></g></g><g class="polarlayer"/><g class="smithlayer"/><g class="ternarylayer"/><g class="geolayer"/><g class="funnelarealayer"/><g class="pielayer"/><g class="iciclelayer"/><g class="treemaplayer"/><g class="sunburstlayer"/><g class="glimages"/><defs id="topdefs-e0f35a"><g class="clips"/></defs><g class="layer-above"><g class="imagelayer"/><g class="shapelayer"/></g><g class="infolayer"><g class="g-gtitle"/><g class="g-xtitle"><text class="xtitle" x="357.5" y="481.8" text-anchor="middle" style="font-family: 'Open Sans', verdana, arial, sans-serif; font-size: 24px; fill: rgb(42, 63, 95); opacity: 1; font-weight: normal; white-space: pre;">T</text></g><g class="g-ytitle" transform="translate(12.2216796875,0)"><text class="ytitle" transform="rotate(-90,11.778125000000003,260)" x="11.778125000000003" y="260" text-anchor="middle" style="font-family: 'Open Sans', verdana, arial, sans-serif; font-size: 24px; fill: rgb(42, 63, 95); opacity: 1; font-weight: normal; white-space: pre;">V,мм/с</text></g></g></svg>