<svg class="main-svg" xmlns="http://www.w3.org/2000/svg" xmlns:xlink="http://www.w3.org/1999/xlink" width="700" height="500" style="" viewBox="0 0 700 500"><rect x="0" y="0" width="700" height="500" style="fill: rgb(255, 255, 255); fill-opacity: 1;"/><defs id="defs-314ed5"><g class="clips"><clipPath id="clip314ed5xyplot" class="plotclip"><rect width="537" height="320"/></clipPath><clipPath class="axesclip" id="clip314ed5x"><rect x="83" y="0" width="537" height="500"/></clipPath><clipPath class="axesclip" id="clip314ed5y"><rect x="0" y="100" width="700" height="320"/></clipPath><clipPath class="axesclip" id="clip314ed5xy"><rect x="83" y="100" width="537" height="320"/></clipPath></g><g class="gradients"/><g class="patterns"/></defs><g class="bglayer"><rect class="bg" x="83" y="100" width="537" height="320" style="fill: rgb(0, 0, 0); fill-opacity: 0; stroke-width: 0;"/></g><g class="layer-below"><g class="imagelayer"/><g class="shapelayer"/></g><g class="cartesianlayer"><g class="subplot xy"><g class="layer-subplot"><g class="shapelayer"/><g class="imagelayer"/></g><g class="minor-gridlayer"><g class="x"/><g class="y"/></g><g class="gridlayer"><g class="x"><path class="xgrid crisp" transform="translate(217.25,0)" d="M0,100v320" style="stroke: rgb(211, 211, 211); stroke-opacity: 1; stroke-width: 2px;"/><path class="xgrid crisp" transform="translate(351.5,0)" d="M0,100v320" style="stroke: rgb(211, 211, 211); stroke-opacity: 1; stroke-width: 2px;"/><path class="xgrid crisp" transform="translate(485.75,0)" d="M0,100v320" style="stroke: rgb(211, 211, 211); stroke-opacity: 1; stroke-width: 2px;"/></g><g class="y"><path class="ygrid crisp" transform="translate(0,378.26)" d="M83,0h537" style="stroke: rgb(211, 211, 211); stroke-opacity: 1; stroke-width: 2px;"/><path class="ygrid crisp" transform="translate(0,308.7)" d="M83,0h537" style="stroke: rgb(211, 211, 211); stroke-opacity: 1; stroke-width: 2px;"/><path class="ygrid crisp" transform="translate(0,239.13)" d="M83,0h537" style="stroke: rgb(211, 211, 211); stroke-opacity: 1; stroke-width: 2px;"/><path class="ygrid crisp" transform="translate(0,169.57)" d="M83,0h537" style="stroke: rgb(211, 211, 211); stroke-opacity: 1; stroke-width: 2px;"/></g></g><g class="zerolinelayer"/><path class="xlines-below"/><path class="ylines-below"/><g class="overlines-below"/><g class="xaxislayer-below"/><g class="yaxislayer-below"/><g class="overaxes-below"/><g class="plot" transform="translate(83,100)" clip-path="url(#clip314ed5xyplot)"><g class="scatterlayer mlayer"><g class="trace scatter tracee6ff0b" style="stroke-miterlimit: 2; opacity: 1;"><g class="fills"/><g class="errorbars"/><g class="lines"><path class="js-line" d="M-1476.75,695.65L-470.71,464.13L-469.37,463.67L165.95,242.88L167.29,242.42L254.6,211.41L255.94,210.89L292.21,197.74L293.55,197.46L333.85,190.91L335.19,190.67L355.34,186L356.68,185.54L364.74,181.2L366.08,180.24L375.48,175.05L376.83,174.5L399.66,167.1L401,166.68L452.04,149.9L453.39,149.43L1206.91,-112.95" style="vector-effect: non-scaling-stroke; fill: none; stroke: rgb(0, 0, 255); stroke-opacity: 1; stroke-width: 5px; opacity: 1;"/></g><g class="points"/><g class="text"/></g><g class="trace scatter trace704971" style="stroke-miterlimit: 2; opacity: 1;"><g class="fills"/><g class="errorbars"/><g class="lines"><path class="js-line" d="M-1476.75,695.65L1206.91,-113.7" style="vector-effect: non-scaling-stroke; fill: none; stroke: rgb(255, 0, 0); stroke-opacity: 1; stroke-width: 5px; opacity: 1; stroke-dasharray: 5px, 5px;"/></g><g class="points"><path class="point" transform="translate(-1476.75,695.65)" d="M7.5,0A7.5,7.5 0 1,1 0,-7.5A7.5,7.5 0 0,1 7.5,0Z" style="opacity: 1; stroke-width: 0px; fill: rgb(255, 0, 0); fill-opacity: 1;"/><path class="point" transform="translate(1206.91,-113.7)" d="M7.5,0A7.5,7.5 0 1,1 0,-7.5A7.5,7.5 0 0,1 7.5,0Z" style="opacity: 1; stroke-width: 0px; fill: rgb(255, 0, 0); fill-opacity: 1;"/></g><g class="text"/></g></g></g><g class="overplot"/><path class="xlines-above crisp" d="M81,421H620" style="fill: none; stroke-width: 2px; stroke: rgb(211, 211, 211); stroke-opacity: 1;"/><path class="ylines-above crisp" d="M82,100V420" style="fill: none; stroke-width: 2px; stroke: rgb(211, 211, 211); stroke-opacity: 1;"/><g class="overlines-above"/><g class="xaxislayer-above"><g class="xtick"><text text-anchor="middle" x="0" y="446" transform="translate(83,0)" style="font-family: 'Open Sans', verdana, arial, sans-serif; font-size: 20px; fill: rgb(42, 63, 95); fill-opacity: 1; white-space: pre; opacity: 1;">1100</text></g><g class="xtick"><text text-anchor="middle" x="0" y="446" style="font-family: 'Open Sans', verdana, arial, sans-serif; font-size: 20px; fill: rgb(42, 63, 95); fill-opacity: 1; white-space: pre; opacity: 1;" transform="translate(217.25,0)">1200</text></g><g class="xtick"><text text-anchor="middle" x="0" y="446" style="font-family: 'Open Sans', verdana, arial, sans-serif; font-size: 20px; fill: rgb(42, 63, 95); fill-opacity: 1; white-space: pre; opacity: 1;" transform="translate(351.5,0)">1300</text></g><g class="xtick"><text text-anchor="middle" x="0" y="446" style="font-family: 'Open Sans', verdana, arial, sans-serif; font-size: 20px; fill: rgb(42, 63, 95); fill-opacity: 1; white-space: pre; opacity: 1;" transform="translate(485.75,0)">1400</text></g><g class="xtick"><text text-anchor="middle" x="0" y="446" style="font-family: 'Open Sans', verdana, arial, sans-serif; font-size: 20px; fill: rgb(42, 63, 95); fill-opacity: 1; white-space: pre; opacity: 1;" transform="translate(620,0)">1500</text></g></g><g class="yaxislayer-above"><g class="ytick"><text text-anchor="end" x="77" y="7" transform="translate(0,378.26)" style="font-family: 'Open Sans', verdana, arial, sans-serif; font-size: 20px; fill: rgb(42, 63, 95); fill-opacity: 1; white-space: pre; opacity: 1;">3</text></g><g class="ytick"><text text-anchor="end" x="77" y="7" style="font-family: 'Open Sans', verdana, arial, sans-serif; font-size: 20px; fill: rgb(42, 63, 95); fill-opacity: 1; white-space: pre; opacity: 1;" transform="translate(0,308.7)">3.5</text></g><g class="ytick"><text text-anchor="end" x="77" y="7" style="font-family: 'Open Sans', verdana, arial, sans-serif; font-size: 20px; fill: rgb(42, 63, 95); fill-opacity: 1; white-space: pre; opacity: 1;" transform="translate(0,239.13)">4</text></g><g class="ytick"><text text-anchor="end" x="77" y="7" style="font-family: 'Open Sans', verdana, arial, sans-serif; font-size: 20px; fill: rgb(42, 63, 95); fill-opacity: 1; white-space: pre; opacity: 1;" transform="translate(0,169.57)">4.5</text></g><g class="ytick"><text text-anchor="end" x="77" y="7" style="font-family: 'Open Sans', verdana, arial, sans-serif; font-size: 20px; fill: rgb(42, 63, 95); fill-opacity: 1; white-space: pre; opacity: 1;" transform="translate(0,100)">5</text></g></g><g class="overaxes-above"/></g></g><g class="polarlayer"/><g class="smithlayer"/><g class="ternarylayer"/><g class="geolayer"/><g class="funnelarealayer"/><g class="pielayer"/><g class="iciclelayer"/><g class="treemaplayer"/><g class="sunburstlayer"/><g class="glimages"/><defs id="topdefs-314ed5"><g class="clips"/></defs><g class="layer-above"><g class="imagelayer"/><g class="shapelayer"/></g><g class="infolayer"><g class="g-gtitle"/><g class="g-xtitle"><text class="xtitle" x="351.5" y="481.8" text-anchor="middle" style="font-family: 'Open Sans', verdana, arial, sans-serif; font-size: 24px; fill: rgb(42, 63, 95); opacity: 1; font-weight: normal; white-space: pre;">i</text></g><g class="g-ytitle" transform="translate(11.5185546875,0)"><text class="ytitle" transform="rotate(-90,12.481250000000003,260)" x="12.481250000000003" y="260" text-anchor="middle" style="font-family: 'Open Sans', verdana, arial, sans-serif; font-size: 24px; fill: rgb(42, 63, 95); opacity: 1; font-weight: normal; white-space: pre;">T</text></g></g></svg>